<?xml version="1.0" encoding="UTF-8" standalone="no"?>
<!-- Created with Inkscape (http://www.inkscape.org/) -->

<svg
        xmlns:dc="http://purl.org/dc/elements/1.1/"
        xmlns:cc="http://creativecommons.org/ns#"
        xmlns:rdf="http://www.w3.org/1999/02/22-rdf-syntax-ns#"
        xmlns:svg="http://www.w3.org/2000/svg"
        xmlns:sodipodi="http://sodipodi.sourceforge.net/DTD/sodipodi-0.dtd"
        xmlns:inkscape="http://www.inkscape.org/namespaces/inkscape"
        xmlns="http://www.w3.org/2000/svg"
        id="svg3919"
        sodipodi:version="0.32"
        inkscape:version="0.91 r13725"
        width="200"
        height="191.53116"
        version="1.0"
        sodipodi:docname="Hidalgo.svg"
        inkscape:output_extension="org.inkscape.output.svg.inkscape">
    <metadata
            id="metadata3924">
        <rdf:RDF>
            <cc:Work
                    rdf:about="">
                <dc:format>image/svg+xml</dc:format>
                <dc:type
                        rdf:resource="http://purl.org/dc/dcmitype/StillImage"/>
                <dc:title></dc:title>
            </cc:Work>
        </rdf:RDF>
    </metadata>
    <defs
            id="defs3922">
        <inkscape:perspective
                sodipodi:type="inkscape:persp3d"
                inkscape:vp_x="0 : 339.9707 : 1"
                inkscape:vp_y="0 : 1000 : 0"
                inkscape:vp_z="999.73236 : 339.9707 : 1"
                inkscape:persp3d-origin="499.86618 : 226.64714 : 1"
                id="perspective147"/>
        <clipPath
                id="clip">
            <rect
                    width="768.2323"
                    height="588.25116"
                    x="0"
                    y="0"
                    transform="matrix(16.167441,0,0,16.167441,-524178.5,-112079.85)"
                    id="rect192"/>
        </clipPath>
        <clipPath
                id="clip-5">
            <rect
                    width="768.2323"
                    height="588.25116"
                    x="0"
                    y="0"
                    transform="matrix(16.167441,0,0,16.167441,-524178.5,-112079.85)"
                    id="rect192-1"/>
        </clipPath>
    </defs>
    <sodipodi:namedview
            inkscape:window-height="836"
            inkscape:window-width="1440"
            inkscape:pageshadow="2"
            inkscape:pageopacity="0.0"
            guidetolerance="10.0"
            gridtolerance="10.0"
            objecttolerance="10.0"
            borderopacity="1.0"
            bordercolor="#666666"
            pagecolor="#ffffff"
            id="base"
            inkscape:zoom="3.0122943"
            inkscape:cx="112.93955"
            inkscape:cy="92.770914"
            inkscape:window-x="0"
            inkscape:window-y="27"
            inkscape:current-layer="svg3919"
            showgrid="false"
            inkscape:window-maximized="1"
            fit-margin-top="0"
            fit-margin-left="0"
            fit-margin-right="0"
            fit-margin-bottom="0"/>
    <path
            style="fill:#b3b3b3;fill-opacity:1;stroke:none;stroke-width:2;stroke-linejoin:miter;stroke-miterlimit:4;stroke-dasharray:none;stroke-opacity:1"
            d=""
            id="path5693"
            inkscape:connector-curvature="0"/>
    <path
            style="fill:#d40000;fill-opacity:1;stroke:none;stroke-width:2;stroke-linejoin:miter;stroke-miterlimit:4;stroke-dasharray:none;stroke-opacity:1"
            d=""
            id="path5701"
            inkscape:connector-curvature="0"/>
    <path
            inkscape:connector-curvature="0"
            id="path4250"
            d="m 39.933445,78.651358 -1.03416,-3.397999 -2.807046,-1.772858 -0.295462,-4.136697 3.988952,-2.36381 1.181905,-4.432158 0.443207,-2.36384 3.988951,-1.920603 2.068349,-5.023111 1.03416,-0.738699 1.477396,-2.807046 1.32965,-2.216094 0,-3.102508 1.772858,-4.136698 0.738698,-3.545744 -3.397999,-3.39797 0.443236,-0.886443 5.318602,-0.147628 1.03416,-2.954763 2.807046,-1.920603 5.318603,4.136668 3.988951,-0.443207 3.250254,-1.329651 3.102508,-1.181905 5.466348,-1.772887 4.432159,-0.590952 1.920632,-1.62511 -0.443236,-4.57991 -1.477396,-0.29549 -1.03416,-2.06835 2.807047,-1.47739 -0.295491,-2.95476 3.69349,-0.88645 5.023111,-1.1819 2.36384,-0.7387 1.477366,2.80705 1.181936,3.69346 1.77286,3.84123 3.8412,2.51156 3.84121,2.21606 4.1367,-0.14763 -1.4774,-3.10253 5.02314,1.77288 5.3186,-0.73869 0.44321,2.80704 0.88644,-0.44323 1.18191,-3.84121 3.25025,2.36381 4.28445,-2.36381 0.88641,-8.56886 -2.6593,-2.95479 -1.4774,0.59095 -4.13666,-3.69346 2.6593,-0.88644 1.47736,-1.77286 4.1367,1.03416 2.06835,-1.77286 1.47739,0.14763 2.65931,-1.1819 2.21609,1.9206 3.25025,-2.6593 1.03416,-0.29549 1.32965,1.62514 0,2.80705 -0.88644,1.03416 -0.88641,-0.7387 -2.2161,2.95479 -1.77286,2.06835 -2.36384,4.13667 1.4774,1.32965 3.398,0 3.25025,-0.29546 -0.88644,1.9206 0.29549,1.62511 2.80705,2.51159 2.95476,3.693456 7.68244,0.147627 3.398,-3.250253 3.10251,1.4774 -1.18191,2.659297 4.43216,1.772858 3.398,-1.625142 2.36381,2.36384 -0.88641,1.625112 2.51155,-0.147628 3.398,3.693461 -1.47739,5.170856 -3.10251,-0.443207 -2.51159,4.284413 -1.47736,4.579905 -0.59095,3.545744 -3.398,4.432159 0.88641,4.432188 2.80705,1.03416 -1.77286,3.102538 -5.3186,0.147627 -3.10254,-0.738698 1.18193,-2.36381 -3.25025,-2.659301 0.29546,-1.772857 -8.12565,0.443207 -3.39797,4.284442 -0.29549,6.205016 -7.38695,2.954793 -2.21609,3.988951 1.92063,2.216065 2.36381,-2.807018 4.1367,-1.625141 5.17085,-4.284413 -1.62514,3.693461 -2.06832,2.36381 -1.18193,2.807046 -2.51156,2.36384 1.03419,5.170856 -3.98895,0.443207 -1.03419,5.466348 -2.95476,2.954763 -3.10254,0.738698 0.44324,2.216094 3.25025,3.841208 0.14763,4.72765 0.44324,4.1367 3.1025,2.21609 6.0573,1.32965 1.03416,-3.84124 3.10254,-1.62511 1.9206,-1.03419 1.77286,0.29549 -0.44321,-2.36384 3.10251,1.03419 4.72765,-2.80704 0.44321,-2.80705 3.84124,-2.216065 3.69346,-3.250253 2.6593,-2.659301 3.8412,0.147628 3.84121,-5.170857 3.54574,-3.397999 3.10251,-3.545716 0.7387,-2.659301 0.14763,-1.32965 0.44321,0.886414 2.06834,3.545744 2.36384,1.772858 0.88642,1.625142 -1.47737,2.954762 1.18191,3.102538 -0.14763,2.36381 2.51155,0.443207 -0.29546,3.397999 -1.47739,2.36384 -0.59096,1.62511 -3.8412,1.18194 -2.51159,2.06832 -0.73867,2.36384 -2.51158,2.95476 -2.21607,3.398 -3.54574,1.18193 -2.06835,-1.03419 c 0,0 0.88644,4.1367 0.14763,4.28445 -0.7387,0.14762 -5.46635,0.14762 -5.46635,0.14762 l -1.03416,-1.03416 -2.06835,0.59096 -1.1819,2.51155 -1.18194,1.77289 0.14763,3.84121 2.80705,0.88641 2.80704,-1.18191 0.7387,-1.47739 1.62511,0.44323 2.06835,-2.80704 4.28445,3.398 -0.59099,1.32965 1.32965,2.21609 0.88645,1.47737 -0.7387,3.25025 3.54574,1.32965 -0.73869,1.62514 -1.4774,-0.4432 -0.88641,2.06835 -2.80705,1.62511 -1.9206,4.87539 0.88641,2.51156 0.14763,3.8412 -1.62511,2.2161 -4.1367,-0.7387 -1.03419,2.21609 -2.21606,1.77286 -1.62515,2.95476 -2.6593,2.9548 -1.47739,1.9206 1.18193,1.03419 3.25025,-0.14762 1.18191,3.54571 2.51156,3.98895 3.69393,2.95488 -5.76184,2.6593 -8.12565,-0.4432 0.44324,4.43216 -6.3528,7.9779 -11.37587,-1.32965 -1.32965,1.77286 -3.25028,-2.51156 -2.51156,-1.4774 -1.9206,0.2955 -3.69346,3.69346 -6.0573,-3.398 1.47739,-2.80702 5.02311,0.29546 -1.9206,-6.50051 2.95476,-3.69346 -2.6593,-4.72765 -4.13666,-3.84123 -2.80705,1.03419 -0.7387,-2.80705 -8.42111,-2.80705 -1.77289,2.06835 -5.61406,-3.398 -4.1367,-0.29546 -2.51155,2.80704 0,2.95477 -1.920607,1.18191 -1.772887,3.25025 -5.466319,-2.95476 -1.625141,-3.84121 6.0573,-3.25026 0.738698,-2.95479 -4.432159,-2.80705 5.170857,-3.398 0.295462,-4.28441 -4.875366,-4.43216 -2.216094,3.10251 -0.147628,5.90956 0.886443,1.62514 -2.807046,-0.59098 0.295491,-3.98896 -2.068349,0 -0.738698,1.4774 -1.181905,1.32965 0.147628,-3.84121 -2.954763,-1.9206 -7.386951,1.18191 -3.841206,5.17085 -2.659301,3.25026 1.03416,3.84123 -1.329651,3.25026 -1.920603,1.62511 -5.318602,2.80705 -1.477396,2.80705 -2.954763,1.32965 -1.477396,1.32965 -3.102508,0.29546 0.443207,-6.79597 -4.136697,-0.88645 -2.36381,-3.398 c 0,0 -2.511556,-1.62514 -3.102508,-1.9206 -0.590953,-0.29549 -0.590953,-3.25025 -0.590953,-3.25025 l 2.068319,-3.25026 2.511585,-4.43219 -2.216094,-5.90955 -3.69346,-4.87537 -2.36384,-3.84123 1.772858,-1.32965 -1.477367,-1.77286 -2.659301,0.29549 -6.0573,0 -4.432186,2.6593 -2.068319,0 -0.147628,-3.398 -2.068348,0.14763 -0.886444,0.73867 -4.284413,-0.29546 -3.988952,-3.25026 -2.8070461,-2.21609 0.4432071,-1.03416 -5.6140641,-5.02314 1.181905,-1.77286 -2.216094,-2.06835 0.886443,-9.75076 -1.920602,-1.32965 1.32965,-2.51155 -1.034189,-0.738702 0.443236,-3.545745 1.477367,-2.216094 0.443236,-2.511556 8.2733651,-2.216094 4.72765,-1.625112 2.216094,-0.147628 5.023111,-2.807046 2.216094,1.32965 c 0,0 3.397997,-1.477366 3.988949,-2.068348 0.590953,-0.590953 2.954792,-2.659301 2.954792,-2.659301 l 4.875366,-1.477367 0.590953,-0.147628"
            style="fill:none;fill-opacity:1;fill-rule:evenodd;stroke:#000000;stroke-width:2.94079399px;stroke-linecap:butt;stroke-linejoin:miter;stroke-miterlimit:4;stroke-dasharray:none;stroke-opacity:1"/>
    <path
            style="fill:none;fill-opacity:1;fill-rule:evenodd;stroke:#000000;stroke-width:2.94079399px;stroke-linecap:butt;stroke-linejoin:miter;stroke-miterlimit:4;stroke-dasharray:none;stroke-opacity:1"
            d="m 40.026736,78.397841 2.402746,2.402746 3.029547,1.358088 -0.104398,1.671459 3.656348,0.731258 1.567002,-0.626801 1.984888,1.253631 2.611661,0.940202 2.402746,1.149144 2.716146,0.522315 1.984889,-3.029547 0.626801,-0.835745 0.940201,2.089346 -0.731258,3.969778 0.313401,1.044658 1.358058,0.104398 1.671489,1.462545 -1.984889,0.522344 -1.671459,1.044658 -0.417887,1.253631 0.731287,1.358059 -0.94023,1.149145 0.104398,1.567002 -0.940201,1.671485 1.044658,5.01441 -0.209091,3.65635 -0.522314,2.08934 -1.253602,0.52235 -0.20909,1.04469 -1.358088,1.2536 -2.193803,0.20879 -1.358058,0.31343 1.358058,2.61166 0.626801,0.3134 0.104398,2.19384 -1.462545,1.77591 -0.731287,0.83575 0.209091,1.77594 -0.626801,1.67149 2.089345,1.2536 -0.731287,1.67146 0.940201,2.71615 7.208239,7.83504 1.775946,1.77594 -3.656348,0.20909 0,1.46255 1.567002,0.9402 0.94023,-0.1044 0,1.46255 0,0.9402 -1.358088,1.98486 -7.626096,-0.1044 -3.55189,-1.8804 -3.969749,-0.41789 -2.193832,0.1044 -1.775945,-4.59658 -2.29826,-2.71615 -0.626801,-2.40274 -1.253602,-1.14912 -1.880432,-3.44743 1.253631,-0.9402 -0.522343,-1.67149 -1.462545,-0.1044 -0.835745,1.04469 -2.089345,-0.1044 -3.447405,-0.3134 -1.671488,0.1044 -3.551892,2.82063 -2.507203,-0.52234 -0.208796,-1.88041 -0.104399,-1.567 -0.6268,-0.20909 -1.044688,1.46255 -1.462516,-0.83575 -2.298289,0.83575 -1.253602,-0.20909 -3.656347,-2.82061 -3.7608341,-3.44743 0.6268,-0.9402 -5.53675,-5.01441 1.253602,-1.46255 -1.567002,-1.14914 -0.522344,-1.14914 0.731287,-8.35739 -0.731287,-1.8804 -1.358058,-0.83574 1.358058,-2.29826 -0.835744,-1.044692 0.417887,-2.820604 0.731258,-1.149145 0.835744,-1.775945 0.3134,-2.716147 2.089346,-0.522344 1.462545,-0.208796 2.8206031,-1.462545 2.507203,-0.417887 0.835745,0.417887 0.731287,-0.417887 1.149115,-1.671459 1.462545,-0.3134 1.567032,0.731258 1.358058,-0.940202 1.253602,-0.522343 1.880402,-1.149145 1.880432,-0.522314 0.940201,0.3134 0.522344,0.835744 1.253602,-0.417887 1.044659,-1.044658 0.940201,-1.044687 1.044687,0 0.417858,-0.940202 1.253601,-0.940201 2.402747,-0.626801 1.253631,-1.149144 1.358058,-0.417858 0.835745,-0.20909"
            id="path4250-3"
            inkscape:connector-curvature="0"/>
    <path
            style="fill:none;fill-opacity:1;fill-rule:evenodd;stroke:#000000;stroke-width:2.94079399px;stroke-linecap:butt;stroke-linejoin:miter;stroke-miterlimit:4;stroke-dasharray:none;stroke-opacity:1"
            d="m 148.98474,112.87239 0.88644,-3.69346 2.73318,-0.66483 -0.44324,-1.62514 1.10806,0.51711 0.51708,-0.96032 1.10803,0.36937 1.62515,0.51708 0.22144,-0.88645 -0.51708,-1.25578 0.36936,-0.36933 1.10803,0.73867 1.18191,0 1.84673,-0.29546 1.47739,-0.96032 1.55127,-0.88641 0.44321,-2.51159 3.25025,-2.585428 1.32966,-1.477366 2.36383,-1.84676 1.32966,-0.369334 0.88641,-1.403524 1.77289,-1.108032 2.51155,0.07381 2.36381,-1.108062 2.73318,-3.988952 2.95479,-2.659301 2.51155,-2.807046 0.7387,-1.03416 0.66483,-1.84673 0.22173,-1.255778 -0.59098,-0.960316 c 0,0 1.40352,0.886443 1.4774,1.181905 0.0738,0.295491 0.7387,1.477396 0.7387,1.477396 l 1.9206,0.664825 -1.18191,0.886444 1.32965,0.886414 0.81257,-0.443207 1.10804,0.886443 -0.7387,1.03416 c 0,0 2.14222,0.590952 1.69901,0.738698 -0.44323,0.147628 -2.14222,3.250253 -2.14222,3.250253 l 1.03416,1.772888 0.22174,2.142191 0.59095,1.181935 2.28997,1.255778 -0.44324,3.176381 -1.40352,1.698984 -0.88642,2.142221 -2.95479,1.25578 -1.69898,0.0738 -2.06835,2.51155 -0.81257,1.99448 -2.2161,2.6593 -1.84673,2.51156 -0.81257,1.10806 -2.80702,0.29546 -1.9206,-0.44321 -0.0738,4.35829 -3.32413,0 -2.6593,-0.51708 -1.77289,-0.22144 -0.51708,1.40349 -0.88641,1.4774 -1.69902,1.25578 0.81258,0.88644 -0.7387,1.77286 0,1.77288 1.69898,-0.66482 0.51711,0.88641 2.06835,-0.29546 1.03416,-1.4774 1.9206,-0.66482 1.25578,-1.03416 1.55127,-1.10806 1.77286,1.10806 2.14222,2.21606 0.0738,0.7387 -0.59095,0.51708 0.44321,1.03419 1.10803,0.81257 1.10806,1.47737 -0.0738,0.7387 -0.29549,1.32965 -0.14763,0.96031 -0.51708,0.51708 0.96031,0.22174 1.69899,0.29546 1.25578,0.14763 -0.36934,1.55127 -0.59095,1.10803 -1.40352,-0.44321 -0.36937,1.62511 -1.55124,0.81258 -1.77288,0.88644 c 0,0 0.51711,0.59095 0.22173,0.7387 -0.29546,0.14763 -1.84673,0.81254 -1.84673,0.81254 l -2.51155,0.51711 -3.02867,0.22173 -1.69898,-0.51708 1.77285,-2.28996 0.96032,-2.58543 -1.40352,-0.88642 -3.398,-1.47739 -1.03416,-2.2161 -1.4774,0.22174 -0.7387,-1.9206 1.92061,-1.32965 -0.29549,-1.18191 -2.73315,0.36934 -0.66482,1.1819 -1.92064,-1.40352 -0.59095,1.62514 -2.88089,-2.51156 -3.02866,-0.59095 -1.62512,-6.94374 1.18191,-1.62514 -0.66483,-1.84673 -1.77285,-0.88642 -1.92064,0.36934 -2.21606,-0.51708"
            id="path4252"
            inkscape:connector-curvature="0"/>
    <path
            style="fill:none;fill-opacity:1;fill-rule:evenodd;stroke:#000000;stroke-width:2.94079399px;stroke-linecap:butt;stroke-linejoin:miter;stroke-miterlimit:4;stroke-dasharray:none;stroke-opacity:1"
            d="m 160.95159,57.100935 -3.17638,0.738698 -3.47187,0.147628 -0.7387,0.664826 -2.88089,-1.403524 -1.62514,-1.403523 -1.47739,0.664825 -3.54572,-1.698985 -3.84124,1.477396 -0.51707,0.590953 -3.32413,1.034159 0.44321,0.664826 -3.25026,0.443236 -3.76733,0.590953 -1.10803,-2.142222 -1.32965,-0.590952 0.0738,-1.108062 -0.14763,-1.034159 0.96028,-1.403524 1.03419,0.221736 1.62512,0.07381 0.51711,-0.886444 -0.66483,-0.369334 -1.32965,-1.034189 -3.47187,-0.07381 -0.51708,0.369364 -0.66483,1.698985 -0.44323,0.07381 -1.03416,-1.625142 0.4432,-1.403494 -1.1819,-2.954792 -0.66483,-2.142221 0,-0.443207 1.69899,0.147628 0.22173,-0.51711 1.4774,-0.295461 -0.14763,-1.920603 -1.1819,-0.960316 -1.03419,-0.812571 -1.25578,1.108061 -0.36933,-0.81257 0.36933,-1.108033 -0.51708,-0.369363 0.36936,-1.55124 -0.59098,-2.289967 0,-3.915078 2.36384,-0.960317 -2.06835,-3.176379 0.29549,-2.142225 1.25578,-2.14219 0.7387,0 0.29546,2.58543 1.03419,-0.44324 0,-2.28994 0.96029,-1.55126 1.84673,1.55126 2.06835,0.66483 3.69349,-1.9206 0.96028,-4.94927 -0.4432,-2.14222 0.81257,-2.36381 -3.17641,-2.43769 -1.25578,0.7387 -2.95476,-1.92063 -1.69902,-1.9206 0.51711,-0.59096 2.80702,0.22174 1.25578,-2.06835 4.06282,0.81257 1.77289,-1.40352 2.36381,-0.14763 1.77286,-0.96029 0.88644,0.44321 0.81257,0.88645 1.25578,0.88641 1.40352,-0.51708 -1.03419,-0.7387 1.10806,-1.40352 1.62512,-0.44321 1.1819,0 0.7387,1.18191 c 0,0 0,1.69901 0,1.99447 0,0.29549 0.36936,1.4774 0.36936,1.4774 l -1.9206,0 -1.4774,0.96029 -0.29549,1.47739 -0.36933,1.03419 -1.25578,0.88641 -1.40352,1.10807 -1.69902,3.47184 1.4774,1.40352 0.96031,-0.22173 0.7387,0.73869 2.21607,-0.51711 2.43771,-0.22173 0.44321,1.84673 -1.40353,0.14763 0.22174,1.32965 1.10803,-0.22174 1.03419,1.40352 1.69899,2.95477 1.62514,1.62514 1.40349,0.960317 2.88092,-0.443237 2.95479,0.369364 1.77286,-0.886444 0.88644,-1.03416 1.92061,-1.25581 2.51156,0.7387 0.66482,0.88644 -1.1819,1.69899 0.4432,0.960316 2.80705,0.886444 1.40352,0.738698 1.62512,-1.255807 1.62514,-1.03416 0.88641,1.181905 0.36937,0.812571 0.96028,1.403522 -0.44321,1.403523 1.99448,-0.517109 2.14222,2.142221 1.40353,1.181905 -0.51708,1.84676 0.0738,2.216065 -0.96029,2.216094 -1.77285,-1.03416 -1.4774,0.590953 -1.03419,1.84673 -0.59095,1.32965 -0.81257,1.108033 0.51711,1.403523 -0.59096,1.477396 -1.10806,-0.664825 -1.1819,2.880919 -0.22174,1.625112 1.99448,0.07381 -0.88642,1.551269 -2.06835,0.51708 -1.40352,3.324127 0.66483,1.403523 -0.44321,1.255778 0.96029,2.289937 2.51155,0.147628 -1.03416,2.289967 -2.36381,0.812571 -4.1367,0.517079 0.29546,-1.772887 -1.25578,-0.147628 -1.32965,1.55124 -2.14222,-1.255778 3.02867,-1.329651 -0.66483,-1.403523 c 0,0 -1.1819,-0.738698 -1.47739,-0.886414 -0.29547,-0.147628 -1.77286,-1.625141 -1.77286,-1.625141 l 0.22144,-0.886444"
            id="path4254"
            inkscape:connector-curvature="0"/>
</svg>
